<?xml version="1.0" encoding="UTF-8"?>
<svg xmlns="http://www.w3.org/2000/svg" version="1.1" viewBox="0 0 800 800">
  <defs>
    <style>
      .cls-1 {
        stroke-linecap: round;
      }

      .cls-1, .cls-2, .cls-3, .cls-4 {
        fill: none;
      }

      .cls-1, .cls-3 {
        stroke-linejoin: round;
      }

      .cls-1, .cls-3, .cls-4 {
        stroke: #a3a3a3;
      }

      .cls-1, .cls-4 {
        stroke-width: 18px;
      }

      .cls-3 {
        stroke-width: 16px;
      }

      .cls-4 {
        stroke-miterlimit: 10;
      }

      .cls-5 {
        display: none;
      }
    </style>
  </defs>
  <!-- Generator: Adobe Illustrator 28.7.5, SVG Export Plug-In . SVG Version: 1.2.0 Build 176)  -->
  <g>
    <g id="Layer_1" class="cls-5">
      <g id="Layer_1-2" data-name="Layer_1">
        <g id="SVGRepo_iconCarrier">
          <path class="cls-3" d="M85.4,258.2c1.6-34.1,6.9-56,14.1-74.7v-.3c7.2-19,18.4-36.2,32.9-50.4l.2-.2.2-.2c14.2-14.5,31.4-25.7,50.4-32.8h.3c18.6-7.4,40.5-12.7,74.6-14.2M85.4,258.2c-1.6,36.4-2.1,47.7-2.1,142.1s.4,105.7,2.1,142.1M85.4,258.2v9.2M99.6,617.2c7.1,19,18.3,36.2,32.8,50.4l.2.2.2.2c14.2,14.5,31.4,25.7,50.4,32.8h.3c18.6,7.3,40.6,12.6,74.7,14.2M99.6,617.2v-.3c-7.4-18.6-12.7-40.5-14.2-74.6M99.6,617.2l-.4-2.3M85.4,542.3l.6,2.9M85.4,542.3v-9.2M99.2,615l-13.2-69.8M99.2,615c-5.6-14.9-11.4-35.6-13.2-69.8M99.2,615c.2.5.4,1,.6,1.5,7.1,19.2,18.4,36.7,33.1,51,14.3,14.7,31.8,26,51,33.1,15.4,6,37.2,12.3,74.3,14,37.4,1.7,49,2.1,142.1,2.1s104.7-.3,142.1-2.1c37.1-1.7,58.9-8,74.2-14,19.2-7.1,36.7-18.4,51-33.1,14.7-14.3,26-31.8,33.1-51,6-15.4,12.3-37.2,14-74.3,1.7-37.4,2.1-49,2.1-142.1s-.3-104.6-2.1-142.1c-1.7-37.3-8.1-59.1-14.1-74.5-7.8-20.2-17.8-35.5-33-50.8-15.2-15.2-30.5-25.1-50.7-33-15.4-6-37.2-12.4-74.5-14.1-3.2,0-6.3-.3-9.2-.4M85.9,545.2c0-1,0-1.9,0-2.9,0-3.2-.3-6.3-.4-9.2M258.1,85.4c36.4-1.7,47.7-2.1,142.1-2.1s105.6.4,142,2.1M258.1,85.4h9.2M542.3,85.4h-9.2M542.3,85.4c34.1,1.6,56,6.9,74.7,14.1h.3c19,7.2,36.2,18.4,50.4,32.9l.2.2.2.2c14.5,14.2,25.7,31.4,32.8,50.4v.3c7.4,18.6,12.7,40.5,14.2,74.6M267.4,85.4h265.7M267.4,85.4c30.8-1.3,47.9-1.6,132.9-1.6s102,.3,132.9,1.6M267.4,85.4c-2.9,0-6,.3-9.2.4-37.1,1.7-58.9,8-74.2,14-19.3,7.2-36.8,18.5-51.2,33.3-15.1,15.2-25,30.4-32.8,50.6-6,15.4-12.4,37.2-14.1,74.5,0,3.2-.3,6.3-.4,9.2M715,542.3c-1.6,34.1-6.9,56-14.1,74.7v.3c-7.3,19-18.5,36.2-32.9,50.4l-.2.2-.2.2c-14.2,14.5-31.4,25.7-50.4,32.8h-.3c-18.6,7.4-40.5,12.7-74.6,14.2M85.4,533.1c-1.3-30.8-1.6-47.9-1.6-132.9s.3-102,1.6-132.9M85.4,533.1v-265.7M343.9,536.3c17.9,7.4,37,11.2,56.4,11.2,39.1,0,76.5-15.5,104.1-43.1s43.1-65.1,43.1-104.1-15.5-76.5-43.1-104.1-65.1-43.1-104.1-43.1-38.5,3.8-56.4,11.2c-17.9,7.4-34.1,18.2-47.8,31.9s-24.5,29.9-31.9,47.8-11.2,37-11.2,56.4,3.8,38.5,11.2,56.4,18.2,34.1,31.9,47.8c13.7,13.7,29.9,24.5,47.8,31.9v-.2ZM295.7,295.7c27.7-27.7,65.3-43.3,104.5-43.3s76.8,15.6,104.5,43.3,43.3,65.3,43.3,104.5-15.6,76.8-43.3,104.5-65.3,43.3-104.5,43.3-76.8-15.6-104.5-43.3-43.3-65.3-43.3-104.5,15.6-76.8,43.3-104.5ZM631.1,218.1c0,11.2-4.5,22-12.4,29.9s-18.7,12.4-29.9,12.4-22-4.5-29.9-12.4-12.4-18.7-12.4-29.9,4.5-22,12.4-29.9,18.7-12.4,29.9-12.4,22,4.5,29.9,12.4,12.4,18.7,12.4,29.9Z"/>
        </g>
      </g>
    </g>
    <g id="Layer_3" class="cls-5">
      <g id="Layer_1-3" data-name="Layer_1">
        <rect class="cls-2" x="4.3" y="5.4" width="785.3" height="790.9"/>
        <path class="cls-4" d="M102.5,717.3h117.8v-439h-117.8v439ZM161.4,84.5c-39.3,0-70.7,31.6-70.7,71.2s31.4,71.2,70.7,71.2,70.7-31.6,70.7-71.2-31.4-71.2-70.7-71.2ZM420.5,345.5v-67.2h-117.8v439h117.8v-225.4c0-126.6,161-134.5,161,0v225.4h117.8v-268.9c0-213.6-223.8-205.6-278.8-102.8Z"/>
      </g>
    </g>
    <g id="Layer_4">
      <g id="Layer_1-4" data-name="Layer_1">
        <g id="SVGRepo_tracerCarrier" class="cls-5">
          <path class="cls-1" d="M771.8,226.2c-3.3,71.3-54.1,168.9-152.3,292.7-101.5,129.3-187.4,194-257.7,194.1-43.5,0-80.4-39.4-110.5-118.2-20.1-72.2-40.2-144.4-60.3-216.7-22.4-78.7-46.3-118.2-71.9-118.2-21.1,8.6-40.9,20.2-58.6,34.5l-35.2-44.4c36.9-31.8,73.2-63.5,108.9-95.3,49.2-41.7,86-63.5,110.6-65.8,58.1-5.5,93.8,33.5,107.3,116.8,14.5,90,24.6,145.9,30.2,167.7,16.8,74.7,35.3,112,55.4,111.9,15.6,0,39.1-24.2,70.4-72.7,31.2-48.4,48-85.3,50.3-110.5,4.5-41.8-12.3-62.6-50.3-62.7-19.1.2-37.9,4.4-55.3,12.1,36.8-117.8,106.8-175.2,210.3-171.8,76.7,2.3,112.9,51,108.4,146.3v.2Z"/>
        </g>
        <g id="SVGRepo_iconCarrier-2" data-name="SVGRepo_iconCarrier">
          <path class="cls-1" d="M770.6,230.7c-3.3,71.3-54.1,168.9-152.3,292.7-101.5,129.3-187.4,194-257.7,194.1-43.5,0-80.4-39.4-110.5-118.2-20.1-72.2-40.2-144.4-60.3-216.7-22.4-78.7-46.3-118.2-71.9-118.2-21.1,8.6-40.9,20.2-58.6,34.5l-35.2-44.4c36.9-31.8,73.2-63.5,108.9-95.3,49.2-41.7,86-63.5,110.6-65.8,58.1-5.5,93.8,33.5,107.3,116.8,14.5,90,24.6,145.9,30.2,167.7,16.8,74.7,35.3,112,55.4,111.9,15.6,0,39.1-24.2,70.4-72.7,31.2-48.4,48-85.3,50.3-110.5,4.5-41.8-12.3-62.6-50.3-62.7-19.1.2-37.9,4.4-55.3,12.1,36.8-117.8,106.8-175.2,210.3-171.8,76.7,2.3,112.9,51,108.4,146.3v.2Z"/>
        </g>
      </g>
    </g>
  </g>
</svg>