<?xml version="1.0" encoding="UTF-8"?>
<svg xmlns="http://www.w3.org/2000/svg" version="1.1" viewBox="0 0 800 800">
  <defs>
    <style>
      .cls-1 {
        stroke-width: 30.4px;
      }

      .cls-1, .cls-2 {
        fill: none;
        stroke: #a3a3a3;
        stroke-linecap: round;
        stroke-linejoin: round;
      }

      .cls-2 {
        stroke-width: 18px;
      }

      .cls-3 {
        display: none;
      }
    </style>
  </defs>
  <!-- Generator: Adobe Illustrator 28.7.5, SVG Export Plug-In . SVG Version: 1.2.0 Build 176)  -->
  <g>
    <g id="Layer_1">
      <g id="SVGRepo_tracerCarrier" class="cls-3">
        <path class="cls-1" d="M724.7,249c-2.9,63.3-47.1,149.9-132.6,259.8-88.4,114.8-163.1,172.2-224.3,172.3-37.9,0-70-35-96.2-104.9-17.5-64.1-35-128.2-52.5-192.4-19.5-69.9-40.3-104.9-62.6-104.9-18.4,7.6-35.6,17.9-51,30.6l-30.6-39.4c32.1-28.2,63.7-56.4,94.8-84.6,42.8-37,74.9-56.4,96.3-58.4,50.6-4.9,81.7,29.7,93.4,103.7,12.6,79.9,21.4,129.5,26.3,148.9,14.6,66.3,30.7,99.4,48.2,99.3,13.6,0,34-21.5,61.3-64.5,27.2-43,41.8-75.7,43.8-98.1,3.9-37.1-10.7-55.6-43.8-55.7-16.6.2-33,3.9-48.1,10.7,32-104.6,93-155.5,183.1-152.5,66.8,2,98.3,45.3,94.4,129.9Z"/>
      </g>
      <g id="SVGRepo_iconCarrier">
        <path class="cls-2" d="M723.7,253c-2.9,63.3-47.1,149.9-132.6,259.8-88.4,114.8-163.1,172.2-224.3,172.3-37.9,0-70-35-96.2-104.9-17.5-64.1-35-128.2-52.5-192.4-19.5-69.9-40.3-104.9-62.6-104.9-18.4,7.6-35.6,17.9-51,30.6l-30.6-39.4c32.1-28.2,63.7-56.4,94.8-84.6,42.8-37,74.9-56.4,96.3-58.4,50.6-4.9,81.7,29.7,93.4,103.7,12.6,79.9,21.4,129.5,26.3,148.9,14.6,66.3,30.7,99.4,48.2,99.3,13.6,0,34-21.5,61.3-64.5,27.2-43,41.8-75.7,43.8-98.1,3.9-37.1-10.7-55.6-43.8-55.7-16.6.2-33,3.9-48.1,10.7,32-104.6,93-155.5,183.1-152.5,66.8,2,98.3,45.3,94.4,129.9Z"/>
      </g>
    </g>
  </g>
</svg>